<?xml version="1.0" standalone="no"?>
<!DOCTYPE svg PUBLIC "-//W3C//DTD SVG 20010904//EN"
 "http://www.w3.org/TR/2001/REC-SVG-20010904/DTD/svg10.dtd">
<svg version="1.0" xmlns="http://www.w3.org/2000/svg"
 width="380.000000pt" height="380.000000pt" viewBox="0 0 380.000000 380.000000"
 preserveAspectRatio="xMidYMid meet">

<g transform="translate(0.000000,380.000000) scale(0.100000,-0.100000)"
fill="#000000" stroke="none">
<path d="M0 1900 l0 -1900 1900 0 1900 0 0 1900 0 1900 -1900 0 -1900 0 0
-1900z m2125 1651 c-3 -5 3 -12 12 -14 10 -3 -11 -4 -47 -4 -36 0 -50 2 -32 4
17 2 32 8 32 14 0 5 9 9 21 9 11 0 18 -4 14 -9z m-132 -18 c-7 -2 -19 -2 -25
0 -7 3 -2 5 12 5 14 0 19 -2 13 -5z m220 -10 c-7 -2 -19 -2 -25 0 -7 3 -2 5
12 5 14 0 19 -2 13 -5z m-261 -10 c-20 -3 -30 -8 -26 -15 4 -7 2 -8 -5 -4 -19
12 -2 26 32 24 l32 -1 -33 -4z m228 -7 c0 -2 -7 -7 -16 -10 -8 -3 -12 -2 -9 4
6 10 25 14 25 6z m53 -13 c-7 -2 -21 -2 -30 0 -10 3 -4 5 12 5 17 0 24 -2 18
-5z m-598 -23 c3 -5 2 -10 -4 -10 -5 0 -13 5 -16 10 -3 6 -2 10 4 10 5 0 13
-4 16 -10z m120 0 c-11 -5 -29 -8 -40 -8 -16 0 -15 2 5 8 34 11 60 11 35 0z
m712 4 c-3 -3 -12 -4 -19 -1 -8 3 -5 6 6 6 11 1 17 -2 13 -5z m-44 -11 c-7 -2
-19 -2 -25 0 -7 3 -2 5 12 5 14 0 19 -2 13 -5z m-768 -13 c-3 -5 -14 -10 -23
-10 -15 0 -15 2 -2 10 20 13 33 13 25 0z m55 -5 c0 -2 -9 -3 -19 -2 -11 0 -18
5 -15 9 4 6 34 0 34 -7z m808 -32 c18 -17 2 -16 -22 2 -10 8 -23 12 -29 8 -6
-3 -7 -1 -3 5 7 12 34 5 54 -15z m-1026 -27 c6 4 27 8 47 10 36 3 36 2 11 -11
-14 -8 -33 -12 -44 -8 -13 3 -16 1 -11 -7 4 -7 -5 -5 -24 4 -17 9 -31 19 -31
22 0 2 9 0 20 -6 11 -6 25 -8 32 -4z m1138 4 c0 -5 -15 -10 -32 -9 -31 1 -32
1 -8 9 35 11 40 11 40 0z m50 -5 c0 -2 -12 -11 -27 -19 -16 -8 -22 -15 -14
-16 8 0 12 -2 9 -5 -3 -3 -13 -3 -22 1 -15 6 -13 9 11 25 28 18 43 23 43 14z
m-1216 -24 c3 -5 -1 -11 -9 -14 -9 -4 -12 -1 -8 9 6 16 10 17 17 5z m641 -22
c-16 -4 -24 -7 -16 -8 8 0 12 -3 10 -4 -2 -2 -29 -1 -59 3 l-55 7 48 2 c27 0
46 5 43 9 -3 5 9 6 27 3 l32 -5 -30 -7z m595 17 c0 -11 -19 -15 -25 -6 -3 5 1
10 9 10 9 0 16 -2 16 -4z m-774 -15 c-4 -5 -1 -11 5 -13 6 -2 -13 -4 -43 -5
-48 -1 -50 0 -15 7 20 4 40 10 44 13 9 10 15 8 9 -2z m41 3 c-3 -3 -12 -4 -19
-1 -8 3 -5 6 6 6 11 1 17 -2 13 -5z m197 -9 c-4 -8 -11 -15 -16 -15 -6 0 -5 6
2 15 7 8 14 15 16 15 2 0 1 -7 -2 -15z m552 -10 c-3 -14 0 -25 6 -25 6 0 9 -3
6 -6 -4 -3 -16 0 -28 6 -21 11 -21 12 -3 30 24 24 24 24 19 -5z m-473 -2 c-7
-2 -19 -2 -25 0 -7 3 -2 5 12 5 14 0 19 -2 13 -5z m-870 -16 c-4 -7 1 -8 13
-4 14 5 12 2 -6 -12 -18 -14 -27 -16 -32 -8 -5 9 -10 9 -20 -1 -6 -6 -17 -12
-22 -12 -16 1 43 47 59 47 8 0 11 -5 8 -10z m1417 3 c0 -5 -2 -10 -4 -10 -3 0
-8 5 -11 10 -3 6 -1 10 4 10 6 0 11 -4 11 -10z m-1066 -16 c9 -3 16 -10 16
-16 0 -5 -4 -6 -10 -3 -5 3 -10 2 -10 -3 0 -5 10 -12 22 -15 12 -4 20 -9 16
-12 -3 -3 -17 0 -32 6 -19 9 -23 15 -16 25 8 8 7 14 -2 17 -7 3 -10 6 -6 6 3
1 13 -2 22 -5z m681 -15 c-4 -5 -12 -9 -18 -8 -9 0 -8 2 1 6 6 2 9 10 6 15 -4
7 -2 8 5 4 6 -4 9 -12 6 -17z m362 2 c0 -11 -7 -17 -14 -14 -9 4 -9 8 0 19 16
17 16 17 14 -5z m-1088 -8 c-13 -15 -35 -17 -43 -4 -4 5 4 7 16 3 12 -3 19 -1
15 5 -3 5 0 10 8 10 11 0 12 -4 4 -14z m771 7 c0 -5 -5 -10 -11 -10 -5 0 -7 5
-4 10 3 6 8 10 11 10 2 0 4 -4 4 -10z m-1110 -14 c0 -2 -8 -10 -17 -17 -16
-13 -17 -12 -4 4 13 16 21 21 21 13z m1052 -15 c4 -3 -12 -7 -35 -7 -23 -1
-33 1 -22 4 l20 5 -20 8 c-14 6 -9 7 15 3 19 -3 38 -9 42 -13z m96 6 c8 -10 5
-13 -14 -15 -14 -1 -33 2 -42 8 -13 7 -8 8 18 4 26 -4 31 -3 20 5 -8 6 -10 11
-4 11 6 0 16 -6 22 -13z m-1188 -32 c0 -5 -4 -5 -8 2 -5 8 -12 8 -26 -2 -10
-8 -15 -18 -12 -23 3 -5 -8 -21 -23 -36 -21 -20 -31 -24 -36 -15 -6 8 -4 10 5
4 10 -6 12 -4 7 8 -4 12 -2 14 11 10 16 -6 16 -5 0 14 -23 25 -23 30 3 44 15
8 19 8 15 0 -11 -18 12 -13 32 7 16 17 32 11 32 -13z m360 18 c0 -3 -16 -3
-35 -1 -19 2 -36 -1 -38 -7 -3 -5 -8 -6 -13 -2 -14 13 13 23 51 19 19 -2 35
-6 35 -9z m1137 10 c-4 -3 -1 -13 6 -22 11 -14 10 -14 -5 -2 -16 12 -16 31 -1
31 4 0 3 -3 0 -7z m78 -45 c-3 -27 2 -40 32 -70 20 -20 41 -34 46 -31 6 4 7 1
2 -6 -5 -9 -25 4 -66 45 -33 32 -59 61 -59 63 0 3 5 0 12 -7 7 -7 17 -12 23
-12 5 1 -1 10 -15 22 -24 20 -24 20 -2 14 13 -5 22 -3 22 3 0 6 2 11 5 11 2 0
2 -15 0 -32z m-1302 9 c4 3 7 2 7 -4 0 -9 -80 -14 -80 -5 0 9 47 18 56 11 6
-5 14 -6 17 -2z m1042 -18 c5 1 1 -7 -10 -19 -23 -26 -39 -21 -40 13 -2 24 0
25 19 14 12 -6 25 -10 31 -8z m-1073 -14 c18 -7 15 -25 -3 -25 -6 0 -7 5 -4
10 3 6 -5 10 -19 10 -14 0 -27 4 -30 8 -5 9 32 7 56 -3z m-72 -15 c0 -5 -5
-10 -11 -10 -5 0 -7 5 -4 10 3 6 8 10 11 10 2 0 4 -4 4 -10z m1208 -42 c-18
-11 -28 -10 -28 3 0 5 5 7 10 4 14 -9 12 8 -2 25 -7 8 -3 6 10 -5 17 -14 19
-21 10 -27z m-1248 -3 c-9 -11 -10 -18 -1 -28 9 -11 4 -14 -24 -12 -19 0 -38
5 -42 10 -4 4 -3 5 3 2 7 -4 14 2 17 13 4 15 10 18 24 13 10 -3 15 -3 11 1 -4
5 -1 14 5 21 16 17 22 -2 7 -20z m964 25 c-7 -7 -19 -7 -35 -1 -23 9 -22 10
11 10 23 1 31 -2 24 -9z m576 -1 c0 -3 -7 -12 -15 -19 -13 -11 -14 -10 -8 5 5
14 3 17 -10 12 -9 -3 -19 -3 -21 2 -3 4 8 7 25 7 16 0 29 -3 29 -7z m-1799
-42 l-23 -22 17 28 c10 15 20 25 23 22 3 -3 -5 -16 -17 -28z m1523 -2 c-22
-17 -54 -20 -54 -4 0 5 3 8 8 6 4 -3 16 -1 27 4 32 12 40 10 19 -6z m41 -13
c-3 -3 -15 -7 -28 -9 -21 -4 -21 -3 -2 11 18 13 44 12 30 -2z m-338 -8 c2 -6
-10 -8 -32 -6 -19 2 -35 8 -35 14 0 13 63 6 67 -8z m-1247 -9 c0 -2 -6 -8 -13
-14 -10 -8 -14 -7 -14 2 0 8 6 14 14 14 7 0 13 -1 13 -2z m201 -27 c-10 -11
-11 -9 -5 7 7 18 6 18 -9 7 -8 -8 -14 -19 -11 -26 3 -7 -12 -19 -33 -29 -29
-13 -34 -14 -19 -2 11 8 24 15 29 15 5 0 7 6 5 12 -6 17 34 49 47 37 5 -6 4
-14 -4 -21z m504 22 c3 -5 1 -10 -4 -10 -6 0 -11 5 -11 10 0 6 2 10 4 10 3 0
8 -4 11 -10z m278 3 c-7 -2 -19 -2 -25 0 -7 3 -2 5 12 5 14 0 19 -2 13 -5z
m82 -3 l-30 -8 35 -2 c19 -1 46 -6 60 -11 17 -6 11 -6 -20 -2 -25 4 -74 6
-110 6 l-65 0 48 8 c27 4 52 10 55 13 3 3 17 5 31 5 25 -1 25 -2 -4 -9z m765
4 c0 -8 -19 -13 -24 -6 -3 5 1 9 9 9 8 0 15 -2 15 -3z m48 -17 c-6 -13 -7 -22
0 -26 5 -3 12 -16 16 -28 4 -13 10 -23 14 -23 4 0 8 -17 8 -38 l1 -37 -11 37
c-6 20 -15 40 -20 45 -5 5 -6 0 -3 -12 7 -20 7 -20 -8 -1 -17 22 -20 40 -5 31
6 -3 7 1 4 10 -4 10 -13 14 -22 10 -12 -5 -12 -1 3 15 10 11 15 23 12 27 -4 4
-14 -2 -23 -13 -15 -18 -15 -18 -5 3 6 12 19 21 30 20 16 -1 18 -5 9 -20z
m-1314 4 c4 -5 -3 -7 -14 -4 -23 6 -26 13 -6 13 8 0 17 -4 20 -9z m96 -1 c-8
-5 -22 -9 -30 -9 -10 0 -8 3 5 9 27 12 43 12 25 0z m945 -10 c10 -12 24 -19
31 -16 8 3 11 -1 7 -10 -5 -13 -9 -13 -30 1 -30 20 -45 11 -17 -10 10 -8 14
-15 7 -15 -16 0 -28 20 -28 48 -1 27 7 28 30 2z m-1671 -5 c-4 -8 -10 -15 -15
-15 -4 0 -6 7 -3 15 4 8 10 15 15 15 4 0 6 -7 3 -15z m673 9 c-3 -3 -12 -4
-19 -1 -8 3 -5 6 6 6 11 1 17 -2 13 -5z m276 -1 c-23 -2 -64 -2 -90 0 -26 2
-7 3 42 3 50 0 71 -1 48 -3z m330 0 c-7 -2 -19 -2 -25 0 -7 3 -2 5 12 5 14 0
19 -2 13 -5z m-505 -11 c-10 -4 76 -6 190 -6 139 1 209 -2 214 -10 5 -7 17 -7
41 2 18 7 40 12 48 11 8 -1 3 -4 -11 -8 -21 -6 -16 -9 39 -25 35 -10 83 -26
108 -37 24 -10 42 -15 39 -11 -2 4 3 8 13 8 10 0 18 -6 18 -13 0 -7 -5 -9 -11
-6 -6 4 -3 -3 8 -15 10 -12 22 -19 26 -17 13 8 18 -54 16 -201 -1 -105 -5
-145 -15 -158 -11 -13 -11 -20 -3 -28 7 -7 12 -21 12 -31 0 -11 8 -26 18 -33
10 -8 12 -13 5 -14 -10 0 -13 -25 -13 -90 0 -73 3 -90 15 -90 11 0 15 13 17
48 1 38 2 41 5 13 6 -45 -4 -81 -21 -81 -8 0 -18 -15 -21 -32 -4 -18 -11 -38
-16 -44 -6 -7 -3 -22 6 -40 8 -16 15 -38 15 -49 0 -12 6 -27 13 -34 10 -11 9
-13 -6 -8 -10 4 -16 3 -13 -1 5 -8 7 -150 4 -212 -1 -14 -12 -35 -25 -48 -13
-12 -21 -27 -17 -33 3 -6 0 -15 -7 -20 -24 -15 -34 -10 -13 7 18 15 18 15 -6
10 -68 -14 -128 -42 -127 -58 1 -12 10 -18 26 -18 32 0 24 -6 -19 -14 -21 -3
-30 -3 -22 3 24 15 -42 30 -105 24 -39 -4 -51 -8 -38 -13 11 -4 -70 -6 -180
-5 -155 2 -206 0 -227 -11 -34 -18 -51 -18 -19 0 32 18 16 25 -61 30 -39 3
-90 16 -134 34 -55 23 -75 27 -90 19 -17 -9 -17 -9 -5 6 11 15 10 18 -13 27
-14 5 -27 11 -27 12 -1 2 -5 79 -8 172 -4 122 -9 171 -18 174 -7 2 -13 8 -13
14 0 6 6 5 15 -2 9 -7 18 -10 22 -7 8 9 -17 38 -28 31 -5 -3 -9 0 -9 5 0 16
11 14 32 -6 25 -22 36 -8 13 17 -17 19 -19 37 -17 177 2 86 7 162 13 169 12
14 3 40 -17 48 -8 3 -14 10 -14 16 0 6 5 8 11 5 7 -5 10 38 7 144 -2 83 1 151
6 151 4 0 5 8 2 17 -4 10 -4 14 0 10 4 -4 14 2 21 13 8 12 20 17 26 13 7 -4 6
1 -2 10 -12 15 -12 17 3 11 9 -3 16 -1 16 5 0 6 5 11 11 11 5 0 7 -4 4 -10 -9
-15 11 -12 27 3 7 8 19 12 27 9 8 -3 11 0 8 5 -3 5 6 10 21 10 43 2 164 31
175 42 6 6 20 11 32 10 17 0 17 -1 3 -7z m-755 -17 c-3 -9 -8 -14 -10 -11 -3
3 -2 9 2 15 9 16 15 13 8 -4z m680 8 c-13 -2 -35 -2 -50 0 -16 2 -5 4 22 4 28
0 40 -2 28 -4z m932 -23 c3 -5 1 -10 -4 -10 -6 0 -11 5 -11 10 0 6 2 10 4 10
3 0 8 -4 11 -10z m116 -7 c13 -16 12 -17 -3 -4 -10 7 -18 15 -18 17 0 8 8 3
21 -13z m-1368 -23 c-5 -19 -23 -29 -23 -12 0 7 20 32 26 32 1 0 0 -9 -3 -20z
m1036 10 c-6 -5 -18 -6 -26 -3 -19 8 -16 11 13 11 17 0 22 -3 13 -8z m-1235
-38 l14 -28 -38 0 c-22 0 -37 3 -34 7 2 5 12 5 20 2 10 -4 15 -1 14 8 -3 20
-1 39 5 39 2 0 11 -13 19 -28z m1596 -25 c0 -6 -11 0 -25 13 -14 13 -25 28
-25 33 0 6 11 0 25 -13 14 -13 25 -28 25 -33z m4 37 c5 -14 4 -15 -9 -4 -17
14 -19 20 -6 20 5 0 12 -7 15 -16z m236 1 c-6 -8 -9 -19 -5 -25 8 -14 -4 -50
-17 -50 -7 0 -7 4 0 13 6 7 8 23 5 36 -4 14 -1 26 8 32 20 13 23 11 9 -6z m17
-27 c-3 -8 -6 -5 -6 6 -1 11 2 17 5 13 3 -3 4 -12 1 -19z m-1637 2 c0 -5 -2
-10 -4 -10 -3 0 -8 5 -11 10 -3 6 -1 10 4 10 6 0 11 -4 11 -10z m-504 -51 c1
-25 -1 -28 -8 -15 -5 10 -7 24 -4 32 8 21 11 17 12 -17z m57 14 c-3 -7 -6 -13
-8 -13 -2 0 -5 6 -8 13 -3 8 1 14 8 14 7 0 11 -6 8 -14z m428 -6 c-10 -9 -11
-8 -5 6 3 10 9 15 12 12 3 -3 0 -11 -7 -18z m1158 2 c-14 -27 -10 -36 6 -15 8
11 15 16 15 10 0 -5 -8 -19 -18 -32 l-17 -22 0 38 c0 24 4 39 12 39 8 0 9 -6
2 -18z m501 0 c0 -11 -4 -18 -10 -14 -5 3 -7 12 -3 20 7 21 13 19 13 -6z
m-213 -17 c-23 -25 -21 -39 2 -18 15 14 21 15 27 4 4 -7 3 -10 -1 -5 -5 4 -16
0 -26 -9 -24 -22 -36 1 -13 27 9 10 19 19 22 19 3 0 -2 -8 -11 -18z m-1447
-12 c0 -5 -2 -10 -4 -10 -3 0 -8 5 -11 10 -3 6 -1 10 4 10 6 0 11 -4 11 -10z
m-279 -14 c-7 -9 -8 -17 -2 -20 5 -3 11 0 13 6 3 7 5 -1 5 -19 0 -29 -2 -31
-14 -15 -13 15 -14 14 -9 -10 4 -15 2 -29 -3 -32 -4 -3 -7 12 -6 34 2 27 -1
37 -9 33 -6 -4 -2 3 8 15 21 24 36 31 17 8z m1459 -16 c0 -5 -5 -10 -11 -10
-5 0 -7 5 -4 10 3 6 8 10 11 10 2 0 4 -4 4 -10z m540 -57 c0 -7 -4 -13 -10
-13 -5 0 -10 6 -10 14 0 8 -3 23 -6 33 -6 16 -5 16 9 -2 9 -11 17 -26 17 -32z
m-30 -9 c0 -8 4 -14 8 -14 11 0 35 -51 28 -58 -3 -2 -10 7 -16 22 -5 15 -14
24 -20 21 -5 -3 -10 0 -10 9 0 8 -3 22 -7 32 -4 12 -3 15 5 10 7 -4 12 -14 12
-22z m-2009 -7 c-10 -9 -11 -8 -5 6 3 10 9 15 12 12 3 -3 0 -11 -7 -18z m1844
-43 c1 -24 -1 -31 -6 -21 -9 15 -9 70 -1 62 3 -2 6 -21 7 -41z m-2075 -4 c12
0 20 -39 9 -46 -5 -3 -9 -2 -8 3 3 19 -2 27 -10 15 -7 -11 -9 -10 -14 3 -4 9
-3 13 3 10 6 -3 8 6 6 22 -2 15 -1 20 1 11 2 -10 8 -18 13 -18z m17 18 c-3 -8
-6 -5 -6 6 -1 11 2 17 5 13 3 -3 4 -12 1 -19z m173 -18 c-6 -11 -13 -20 -16
-20 -2 0 0 9 6 20 6 11 13 20 16 20 2 0 0 -9 -6 -20z m-150 -4 c0 -3 -4 -8
-10 -11 -5 -3 -10 -1 -10 4 0 6 5 11 10 11 6 0 10 -2 10 -4z m160 -36 c-7 -16
-17 -30 -22 -30 -7 0 -6 5 1 13 6 8 8 17 4 20 -3 4 -1 7 5 7 7 0 12 8 12 17 0
9 3 13 6 10 4 -4 1 -20 -6 -37z m1840 10 c0 -5 -4 -10 -10 -10 -5 0 -10 5 -10
10 0 6 5 10 10 10 6 0 10 -4 10 -10z m42 -39 c-5 -3 -12 -15 -15 -26 -4 -16
-5 -15 -6 6 -1 27 21 58 28 38 2 -6 -1 -14 -7 -18z m38 -6 c0 -5 -5 -3 -10 5
-5 8 -10 20 -10 25 0 6 5 3 10 -5 5 -8 10 -19 10 -25z m-24 -31 c-4 -9 -9 -15
-11 -12 -3 3 -3 13 1 22 4 9 9 15 11 12 3 -3 3 -13 -1 -22z m194 16 c0 -5 -5
-10 -11 -10 -5 0 -7 5 -4 10 3 6 8 10 11 10 2 0 4 -4 4 -10z m-2306 -50 c-6
-6 -10 -3 -10 10 0 13 4 16 10 10 7 -7 7 -13 0 -20z m1741 9 c11 -16 1 -19
-13 -3 -7 8 -8 14 -3 14 5 0 13 -5 16 -11z m-1188 -31 c-3 -7 -5 -2 -5 12 0
14 2 19 5 13 2 -7 2 -19 0 -25z m1175 -55 c6 -13 9 -25 6 -28 -11 -11 -35 57
-29 83 l6 27 3 -30 c1 -16 8 -40 14 -52z m436 52 c-3 -3 -9 2 -12 12 -6 14 -5
15 5 6 7 -7 10 -15 7 -18z m-1588 -3 c0 -5 -7 -17 -15 -28 -14 -18 -14 -17 -4
9 12 27 19 34 19 19z m1157 -14 c-3 -8 -6 -5 -6 6 -1 11 2 17 5 13 3 -3 4 -12
1 -19z m-1730 -10 c-3 -8 -6 -5 -6 6 -1 11 2 17 5 13 3 -3 4 -12 1 -19z m188
12 c-3 -5 -11 -10 -16 -10 -6 0 -7 5 -4 10 3 6 11 10 16 10 6 0 7 -4 4 -10z
m1962 -32 c-3 -8 -6 -5 -6 6 -1 11 2 17 5 13 3 -3 4 -12 1 -19z m220 -20 c-3
-7 -5 -2 -5 12 0 14 2 19 5 13 2 -7 2 -19 0 -25z m-50 -10 c-3 -8 -6 -5 -6 6
-1 11 2 17 5 13 3 -3 4 -12 1 -19z m30 -20 c-3 -7 -5 -2 -5 12 0 14 2 19 5 13
2 -7 2 -19 0 -25z m-1789 -19 c-3 -8 -7 -3 -11 10 -4 17 -3 21 5 13 5 -5 8
-16 6 -23z m1765 -4 c-3 -9 -8 -14 -10 -11 -3 3 -2 9 2 15 9 16 15 13 8 -4z
m-2186 -47 c-3 -7 -5 -2 -5 12 0 14 2 19 5 13 2 -7 2 -19 0 -25z m2030 -15
c-3 -10 -5 -2 -5 17 0 19 2 27 5 18 2 -10 2 -26 0 -35z m210 10 c-3 -10 -5 -4
-5 12 0 17 2 24 5 18 2 -7 2 -21 0 -30z m83 -4 c0 -11 -4 -17 -10 -14 -5 3
-10 13 -10 21 0 8 5 14 10 14 6 0 10 -9 10 -21z m-91 -161 c12 -35 6 -36 -12
-3 -13 26 -13 25 -26 -25 -7 -28 -15 -49 -18 -47 -5 6 17 89 28 101 4 4 6 34
4 65 l-4 56 9 -60 c6 -33 14 -72 19 -87z m-42 40 c-3 -8 -6 -5 -6 6 -1 11 2
17 5 13 3 -3 4 -12 1 -19z m-1775 -60 c-8 -8 -9 -4 -5 13 4 13 8 18 11 10 2
-7 -1 -18 -6 -23z m1181 12 c-3 -11 -9 -17 -15 -14 -5 3 -4 12 3 20 16 19 18
18 12 -6z m-13 -48 c0 -15 -2 -15 -10 -2 -13 20 -13 33 0 25 6 -3 10 -14 10
-23z m427 -4 c-3 -7 -5 -2 -5 12 0 14 2 19 5 13 2 -7 2 -19 0 -25z m-2152 2
c3 -5 1 -10 -4 -10 -6 0 -11 5 -11 10 0 6 2 10 4 10 3 0 8 -4 11 -10z m142
-12 c-3 -8 -6 -5 -6 6 -1 11 2 17 5 13 3 -3 4 -12 1 -19z m1597 -68 c2 -26 0
-37 -5 -28 -10 14 -12 85 -3 76 3 -3 7 -25 8 -48z m-1527 -17 c-3 -10 -5 -4
-5 12 0 17 2 24 5 18 2 -7 2 -21 0 -30z m-13 -43 c-5 -5 -10 3 -11 18 -1 22 0
24 9 8 6 -10 6 -22 2 -26z m369 23 c-7 -2 -14 -23 -15 -46 -1 -39 -2 -39 -5
-9 -5 41 2 62 19 61 10 0 10 -2 1 -6z m-349 -37 c-3 -15 -8 -25 -11 -23 -2 3
-1 17 3 31 3 15 8 25 11 23 2 -3 1 -17 -3 -31z m1863 -13 c-3 -10 -5 -2 -5 17
0 19 2 27 5 18 2 -10 2 -26 0 -35z m61 22 c-3 -3 -9 2 -12 12 -6 14 -5 15 5 6
7 -7 10 -15 7 -18z m-2121 -27 c-3 -7 -5 -2 -5 12 0 14 2 19 5 13 2 -7 2 -19
0 -25z m2270 -45 c-3 -10 -5 -2 -5 17 0 19 2 27 5 18 2 -10 2 -26 0 -35z
m-245 5 c-9 -9 -12 -7 -12 12 0 19 3 21 12 12 9 -9 9 -15 0 -24z m62 7 c-4 -8
-10 -13 -15 -10 -4 3 -6 12 -3 20 4 8 10 13 15 10 4 -3 6 -12 3 -20z m-2107
-32 c-3 -10 -5 -2 -5 17 0 19 2 27 5 18 2 -10 2 -26 0 -35z m26 27 c-3 -12 -8
-19 -11 -16 -5 6 5 36 12 36 2 0 2 -9 -1 -20z m2072 -30 c3 -5 1 -10 -4 -10
-6 0 -11 5 -11 10 0 6 2 10 4 10 3 0 8 -4 11 -10z m185 -10 c0 -5 -4 -10 -10
-10 -5 0 -10 5 -10 10 0 6 5 10 10 10 6 0 10 -4 10 -10z m-2265 -20 c3 -5 1
-10 -4 -10 -6 0 -11 5 -11 10 0 6 2 10 4 10 3 0 8 -4 11 -10z m2252 -6 c-3 -3
-12 -4 -19 -1 -8 3 -5 6 6 6 11 1 17 -2 13 -5z m-2194 -19 c-3 -9 -8 -14 -10
-11 -3 3 -2 9 2 15 9 16 15 13 8 -4z m170 0 c-3 -9 -8 -14 -10 -11 -3 3 -2 9
2 15 9 16 15 13 8 -4z m34 -35 c-15 -22 -16 -22 -14 13 2 31 4 34 16 22 11
-11 11 -17 -2 -35z m1736 30 c-7 -27 5 -25 17 3 5 12 9 15 9 7 1 -24 -14 -41
-31 -35 -16 6 -14 45 2 45 5 0 6 -9 3 -20z m-1687 -52 c-9 -5 -16 -16 -16 -25
0 -12 -3 -13 -13 -4 -8 6 -17 8 -20 4 -4 -3 -7 -1 -7 5 0 16 18 24 23 10 3 -8
7 -6 12 7 5 11 13 26 19 34 9 12 12 11 15 -4 1 -10 -4 -22 -13 -27z m1407 9
c3 -8 -1 -14 -8 -14 -7 0 -11 6 -8 14 3 7 6 13 8 13 2 0 5 -6 8 -13z m310 -7
c-3 -11 -10 -23 -16 -27 -5 -3 -8 -2 -5 3 3 5 8 17 11 27 9 24 16 22 10 -3z
m173 -27 c2 -25 0 -32 -7 -23 -7 13 -9 13 -10 0 -1 -8 -1 -22 0 -30 2 -12 0
-13 -7 -1 -8 11 -10 11 -15 0 -4 -10 -6 -9 -6 4 -1 9 3 17 8 17 5 0 11 8 15
18 3 9 9 23 12 31 4 9 2 11 -5 7 -7 -5 -9 -1 -5 9 9 23 16 11 20 -32z m-1646
6 c0 -19 -26 -8 -27 12 -2 17 1 18 13 9 8 -7 14 -16 14 -21z m-474 12 c-4 -5
-2 -11 2 -13 5 -1 12 -19 15 -38 l6 -35 -18 40 c-17 36 -18 55 -5 55 3 0 3 -4
0 -9z m1914 -10 c-5 -11 -15 -23 -21 -27 -6 -3 -3 5 6 20 20 30 30 35 15 7z
m-306 -25 c-6 -16 -24 -23 -24 -8 0 10 22 33 27 28 2 -2 1 -11 -3 -20z m-1324
-7 c0 -14 -27 -10 -33 5 -4 10 0 12 14 9 10 -3 19 -9 19 -14z m208 -7 c-10 -2
-18 -10 -18 -17 0 -9 -6 -12 -15 -9 -12 5 -10 10 8 24 12 10 26 15 32 12 5 -4
2 -8 -7 -10z m-434 -42 c-6 -5 -24 21 -24 34 0 6 6 1 14 -10 8 -10 12 -21 10
-24z m1546 20 c0 -5 -2 -10 -4 -10 -3 0 -8 5 -11 10 -3 6 -1 10 4 10 6 0 11
-4 11 -10z m273 -24 c-10 -13 -20 -22 -22 -20 -4 4 29 44 36 44 2 0 -4 -11
-14 -24z m-1610 5 c13 -2 8 -19 -7 -24 -11 -4 -13 -1 -9 10 4 10 2 14 -5 9 -6
-3 -13 -2 -16 3 -4 5 2 8 11 6 10 -2 21 -4 26 -4z m1577 -12 c0 -14 -20 -11
-21 4 0 6 -4 3 -9 -8 -6 -15 -9 -16 -9 -4 -1 9 2 18 5 22 8 8 34 -3 34 -14z
m-1483 5 c-3 -3 -12 -4 -19 -1 -8 3 -5 6 6 6 11 1 17 -2 13 -5z m1109 -9 c17
-16 14 -18 -10 -9 -9 3 -16 10 -16 15 0 13 9 11 26 -6z m-1396 1 c0 -2 -8 -10
-17 -17 -16 -13 -17 -12 -4 4 13 16 21 21 21 13z m555 -6 c-3 -5 -12 -10 -18
-10 -7 0 -6 4 3 10 19 12 23 12 15 0z m95 -21 c10 -6 5 -7 -15 -3 -23 4 -27 3
-15 -5 11 -8 6 -9 -20 -5 -45 9 -51 14 -14 14 23 0 26 2 14 11 -11 8 -9 9 10
3 14 -3 32 -10 40 -15z m61 -7 c-7 -2 -18 1 -23 6 -8 8 -4 9 13 5 13 -4 18 -8
10 -11z m1254 -22 c0 -15 -3 -26 -7 -23 -11 6 -10 -15 1 -36 8 -13 5 -17 -12
-18 -17 -2 -18 0 -7 7 8 5 11 12 7 16 -4 4 -17 -1 -29 -12 -20 -17 -19 -15 3
16 31 42 48 87 29 75 -9 -6 -11 -4 -6 4 11 18 21 4 21 -29z m-1935 21 c2 -1
-1 -6 -8 -13 -15 -15 -16 -31 0 -22 7 4 8 3 4 -5 -4 -6 -11 -9 -16 -6 -4 3
-13 -2 -20 -10 -11 -13 -10 -14 4 -9 21 8 20 1 -3 -20 -19 -17 -19 -17 -17 8
2 15 11 35 21 46 17 18 14 25 -8 21 -5 -1 -6 3 -3 8 3 5 14 8 24 6 9 -2 19 -4
22 -4z m178 -16 c-3 -3 -9 2 -12 12 -6 14 -5 15 5 6 7 -7 10 -15 7 -18z m-248
-5 c0 -11 -7 -20 -15 -20 -8 0 -15 9 -15 20 0 11 7 20 15 20 8 0 15 -9 15 -20z
m883 13 c-7 -2 -19 -2 -25 0 -7 3 -2 5 12 5 14 0 19 -2 13 -5z m347 -9 c0 -2
-16 -4 -35 -4 -19 0 -35 4 -35 8 0 4 16 6 35 4 19 -2 35 -6 35 -8z m90 6 c10
-6 2 -7 -25 -3 -49 7 -58 13 -19 13 16 0 36 -5 44 -10z m-698 -7 c-6 -2 -10
-9 -6 -14 3 -5 -6 -9 -20 -9 -48 0 -24 27 24 28 10 0 11 -1 2 -5z m-338 -19
c9 -8 16 -20 16 -26 0 -6 -9 -1 -20 12 -29 33 -25 44 4 14z m1476 0 c0 -8 -5
-12 -10 -9 -6 4 -8 11 -5 16 9 14 15 11 15 -7z m-1436 -34 c-6 -6 -10 -3 -10
10 0 13 4 16 10 10 7 -7 7 -13 0 -20z m1406 20 c0 -5 -4 -10 -10 -10 -5 0 -10
5 -10 10 0 6 5 10 10 10 6 0 10 -4 10 -10z m-27 -35 c4 -8 3 -16 -1 -19 -4 -3
-9 4 -9 15 -2 23 3 25 10 4z m-1067 -7 c3 -4 -11 -8 -30 -8 -20 0 -36 4 -36 9
0 12 59 11 66 -1z m-271 -19 c-9 -14 9 -11 31 6 10 8 37 14 59 13 l40 -1 -45
-7 c-35 -5 -38 -7 -15 -9 22 -1 26 -4 16 -10 -8 -5 -20 -7 -26 -5 -7 3 -15 -2
-18 -10 -5 -11 0 -16 13 -16 10 0 22 -4 25 -10 8 -12 3 -13 -29 0 -17 6 -24
14 -20 25 3 8 1 15 -5 15 -6 0 -11 -5 -11 -12 0 -9 -3 -9 -12 0 -14 14 -20 44
-7 36 5 -3 7 -10 4 -15z m-539 -28 c4 7 3 14 -4 17 -7 2 -12 8 -12 14 0 6 9 3
19 -6 12 -11 21 -14 26 -7 3 6 1 11 -6 11 -7 0 -10 2 -7 5 3 3 12 3 21 -1 13
-5 11 -11 -15 -32 l-31 -26 -18 23 c-11 13 -19 28 -19 35 0 6 9 -2 19 -17 14
-21 21 -25 27 -16z m97 14 c-7 -21 -12 -19 -10 4 0 11 5 18 9 15 4 -3 5 -11 1
-19z m62 -3 c-3 -8 0 -21 6 -28 6 -8 9 -20 6 -28 -3 -8 1 -20 8 -26 8 -7 12
-16 9 -22 -3 -5 -12 -4 -20 3 -7 6 -11 16 -7 22 4 7 0 8 -13 3 -10 -4 -15 -4
-11 0 3 4 -2 15 -13 24 -16 14 -18 19 -6 23 9 4 16 -3 20 -16 4 -17 8 -19 17
-10 10 10 9 16 -3 30 -26 31 -29 51 -7 46 13 -4 18 -11 14 -21z m1940 -8 c0
-26 -28 -50 -46 -39 -5 4 -16 1 -24 -5 -8 -7 -15 -10 -15 -6 0 3 0 9 0 14 0 4
5 8 10 8 6 1 15 2 21 3 6 0 9 8 6 15 -4 10 -1 13 7 10 7 -3 19 2 26 11 16 19
16 20 15 -11z m-275 -10 c0 -2 -9 0 -20 6 -11 6 -20 13 -20 16 0 2 9 0 20 -6
11 -6 20 -13 20 -16z m-1860 -19 c0 -5 -5 -3 -10 5 -5 8 -10 20 -10 25 0 6 5
3 10 -5 5 -8 10 -19 10 -25z m1835 6 c3 -5 2 -12 -3 -15 -5 -3 -9 1 -9 9 0 17
3 19 12 6z m-1815 -15 c0 -2 -8 -10 -17 -17 -16 -13 -17 -12 -4 4 13 16 21 21
21 13z m215 -5 c3 -5 2 -12 -3 -15 -5 -3 -9 1 -9 9 0 17 3 19 12 6z m-301 -18
c-5 -17 -5 -17 9 0 14 16 15 16 19 -6 4 -21 1 -23 -21 -19 -23 5 -25 3 -12
-11 9 -12 10 -17 2 -17 -6 0 -16 12 -21 26 -13 32 -13 43 0 24 8 -13 10 -12
10 3 0 9 4 17 10 17 5 0 7 -8 4 -17z m761 6 c3 6 20 1 40 -11 42 -24 49 -34
30 -41 -9 -4 -12 -1 -8 9 3 9 -1 14 -12 14 -10 0 -14 -5 -9 -12 4 -8 3 -10 -2
-5 -5 5 -8 12 -7 15 3 16 -20 32 -32 22 -8 -7 -18 -5 -31 6 -18 14 -18 15 3 5
14 -7 24 -7 28 -2z m82 -3 c0 -8 -6 -12 -15 -9 -11 5 -11 7 0 14 7 5 13 9 14
9 0 0 1 -6 1 -14z m908 5 c-17 -7 -16 -9 9 -15 16 -4 26 -9 24 -12 -3 -2 -17
0 -32 6 -29 10 -27 31 2 29 14 0 13 -2 -3 -8z m60 -3 c14 -6 25 -15 25 -20 0
-5 -6 -6 -12 -1 -13 8 -18 9 -38 12 -5 0 -10 6 -10 11 0 13 3 13 35 -2z m275
-16 c0 -4 -15 -16 -32 -26 l-33 -17 30 25 c33 29 35 30 35 18z m-336 -33 c-8
-14 -21 -11 -21 5 0 8 6 12 14 9 7 -3 10 -9 7 -14z m356 -9 c8 -5 11 -10 5
-10 -5 0 -17 5 -25 10 -8 5 -10 10 -5 10 6 0 17 -5 25 -10z m-2077 -27 c-4
-11 -3 -14 6 -9 16 10 53 -23 47 -41 -3 -8 0 -13 7 -12 24 3 35 -1 40 -16 5
-11 0 -13 -24 -8 -35 7 -55 -12 -37 -34 5 -7 7 -21 4 -30 -6 -15 -8 -15 -16
-3 -7 11 -9 10 -8 -6 2 -25 -52 -94 -69 -89 -7 2 -10 -2 -6 -11 3 -8 2 -14 -3
-13 -22 4 -34 -2 -34 -16 0 -8 -9 -15 -20 -15 -18 0 -24 -9 -21 -35 2 -18 -47
-66 -68 -68 -13 -1 -17 -5 -12 -10 6 -6 -13 -33 -49 -70 -33 -33 -57 -63 -55
-68 3 -4 0 -11 -6 -15 -8 -5 -9 -3 -4 6 6 10 4 12 -8 7 -14 -5 -15 -3 -4 14
10 16 9 21 -3 29 -24 15 -36 12 -14 -4 10 -8 15 -18 11 -23 -5 -4 -17 2 -27
15 -10 12 -23 22 -28 22 -5 0 -15 6 -21 14 -10 11 -8 17 6 25 23 14 8 14 -18
1 -34 -19 -21 -1 56 75 41 41 75 78 75 81 0 4 14 20 30 36 17 15 30 32 30 37
0 5 9 12 19 16 11 3 23 15 26 25 3 10 15 22 25 25 10 3 22 14 25 25 8 25 83
92 95 85 6 -4 10 -14 10 -24 0 -18 18 -41 32 -41 17 0 7 33 -17 52 -14 11 -25
26 -25 34 0 20 9 18 31 -8 17 -21 18 -21 12 -3 -3 11 -11 23 -16 26 -5 4 -3
15 4 27 15 24 31 20 22 -5z m877 13 c0 -2 -7 -7 -16 -10 -8 -3 -12 -2 -9 4 6
10 25 14 25 6z m125 -7 c23 -6 19 -7 -20 -4 l-50 5 49 -16 c40 -12 50 -13 57
-3 4 8 11 10 16 6 4 -5 1 -12 -7 -18 -24 -15 -127 12 -115 31 7 11 27 11 70
-1z m583 -10 c13 0 11 -3 -6 -11 -28 -14 -57 6 -32 22 9 6 16 6 18 0 2 -6 11
-10 20 -11z m35 3 c14 -15 15 -19 2 -19 -8 0 -12 4 -9 8 2 4 -4 12 -13 18 -10
6 -13 11 -7 11 6 0 18 -8 27 -18z m34 12 c-3 -3 -12 -4 -19 -1 -8 3 -5 6 6 6
11 1 17 -2 13 -5z m-752 -14 c-27 -12 -43 -12 -25 0 8 5 22 9 30 9 10 0 8 -3
-5 -9z m1070 0 c-3 -5 -12 -10 -18 -10 -7 0 -6 4 3 10 19 12 23 12 15 0z
m-475 -10 c0 -5 -4 -10 -10 -10 -5 0 -10 5 -10 10 0 6 5 10 10 10 6 0 10 -4
10 -10z m520 6 c0 -3 -4 -8 -10 -11 -5 -3 -10 -1 -10 4 0 6 5 11 10 11 6 0 10
-2 10 -4z m-1045 -26 c13 -5 14 -9 5 -9 -8 0 -24 4 -35 9 -13 5 -14 9 -5 9 8
0 24 -4 35 -9z m-329 -11 c4 -8 -1 -9 -16 -4 -15 5 -20 4 -16 -4 4 -6 2 -11
-3 -11 -6 0 -11 4 -11 8 0 22 34 30 46 11z m874 1 c0 -5 -5 -10 -11 -10 -5 0
-7 5 -4 10 3 6 8 10 11 10 2 0 4 -4 4 -10z m-820 -36 c0 -2 -9 0 -20 6 -11 6
-20 13 -20 16 0 2 9 0 20 -6 11 -6 20 -13 20 -16z m487 3 c-16 -5 -38 -5 -54
0 -22 8 -18 9 27 9 45 0 49 -1 27 -9z m140 7 c-3 -3 -12 -4 -19 -1 -8 3 -5 6
6 6 11 1 17 -2 13 -5z m530 -8 c0 -8 -6 -12 -15 -9 -11 5 -11 7 0 14 7 5 13 9
14 9 0 0 1 -6 1 -14z m-2027 -14 c0 -5 -7 -9 -15 -9 -8 0 -12 4 -9 9 3 4 9 8
15 8 5 0 9 -4 9 -8z m745 -2 c4 -6 1 -9 -6 -8 -8 2 -14 -7 -15 -19 -1 -25 11
-31 19 -10 3 6 6 8 6 2 0 -5 -4 -17 -9 -25 -8 -12 -12 -12 -18 -2 -12 18 -67
-2 -56 -20 5 -8 1 -8 -12 2 -10 8 -21 16 -24 18 -3 2 2 3 10 2 8 -1 26 1 38 5
18 6 21 10 10 17 -9 6 -5 7 11 3 16 -5 21 -4 16 4 -4 7 -1 18 5 26 15 18 17
18 25 5z m119 -5 c11 -8 15 -15 10 -15 -6 0 -19 7 -30 15 -10 8 -14 14 -9 14
6 0 19 -6 29 -14z m41 -3 c-3 -3 -11 0 -18 7 -9 10 -8 11 6 5 10 -3 15 -9 12
-12z m45 -13 c12 -8 10 -9 -9 -4 -16 5 -21 4 -17 -4 4 -6 3 -11 -3 -11 -16 0
-22 18 -9 23 19 8 22 8 38 -4z m980 -9 c-8 -5 -19 -10 -25 -10 -5 0 -3 5 5 10
8 5 20 10 25 10 6 0 3 -5 -5 -10z m52 3 c-6 -2 -10 -9 -7 -14 4 -5 -1 -6 -10
-2 -13 5 -14 7 -3 14 7 5 18 8 23 8 6 0 4 -3 -3 -6z m-1117 -13 c-3 -5 -11
-10 -16 -10 -6 0 -7 5 -4 10 3 6 11 10 16 10 6 0 7 -4 4 -10z m1165 -6 c0 -2
-7 -4 -15 -4 -8 0 -15 4 -15 10 0 5 7 7 15 4 8 -4 15 -8 15 -10z m-200 -24 c0
-5 -5 -10 -11 -10 -5 0 -7 5 -4 10 3 6 8 10 11 10 2 0 4 -4 4 -10z m-1115 -10
c3 -5 1 -10 -4 -10 -6 0 -11 5 -11 10 0 6 2 10 4 10 3 0 8 -4 11 -10z m375 -1
c-12 -9 -11 -10 8 -6 12 3 20 1 17 -3 -3 -5 1 -11 7 -14 7 -4 2 -4 -12 -1 -14
2 -36 5 -50 5 l-25 0 25 14 c30 17 51 20 30 5z m-76 -13 c-10 -8 -21 -12 -24
-10 -5 6 21 24 34 24 6 0 1 -6 -10 -14z m816 -6 c0 -5 8 -11 18 -13 9 -2 6 -3
-8 -2 -14 2 -34 -1 -45 -6 -18 -9 -18 -9 -3 4 13 10 14 17 6 25 -8 8 -5 9 11
5 11 -3 21 -9 21 -13z m37 14 c-3 -3 -12 -4 -19 -1 -8 3 -5 6 6 6 11 1 17 -2
13 -5z m-1117 -14 c0 -5 -4 -10 -10 -10 -5 0 -10 5 -10 10 0 6 5 10 10 10 6 0
10 -4 10 -10z m-45 -10 c3 -5 2 -10 -4 -10 -5 0 -13 5 -16 10 -3 6 -2 10 4 10
5 0 13 -4 16 -10z m1015 0 c-8 -5 -19 -10 -25 -10 -5 0 -3 5 5 10 8 5 20 10
25 10 6 0 3 -5 -5 -10z m-667 -7 c-7 -2 -19 -2 -25 0 -7 3 -2 5 12 5 14 0 19
-2 13 -5z m207 -3 c-8 -5 -22 -9 -30 -9 -10 0 -8 3 5 9 27 12 43 12 25 0z
m-516 -9 c3 -5 -1 -11 -9 -14 -9 -4 -12 -1 -8 9 6 16 10 17 17 5z m833 3 c-3
-3 -12 -4 -19 -1 -8 3 -5 6 6 6 11 1 17 -2 13 -5z m-841 -52 c-18 -16 -18 -16
-6 6 6 13 14 21 18 18 3 -4 -2 -14 -12 -24z m-191 -52 c24 -25 27 -32 15 -43
-8 -7 -10 -8 -7 -1 4 7 0 15 -9 18 -8 3 -12 11 -8 17 4 8 3 9 -5 5 -6 -4 -8
-12 -5 -18 4 -7 2 -8 -5 -4 -6 4 -9 12 -6 17 13 20 -7 8 -30 -18 -13 -16 -27
-24 -32 -20 -4 5 4 19 20 32 15 13 27 29 27 35 0 18 15 11 45 -20z m-725 -1
c0 -6 -4 -7 -10 -4 -5 3 -10 11 -10 16 0 6 5 7 10 4 6 -3 10 -11 10 -16z m910
-30 c0 -6 -4 -7 -10 -4 -5 3 -10 11 -10 16 0 6 5 7 10 4 6 -3 10 -11 10 -16z
m-196 -11 c-3 -5 -10 -5 -16 -2 -6 4 -8 2 -5 -4 7 -9 32 -10 66 -1 32 9 20
-25 -23 -67 -25 -24 -46 -48 -46 -54 0 -6 -10 -15 -23 -21 -13 -6 -31 -25 -41
-42 -9 -18 -32 -43 -51 -57 -19 -14 -36 -35 -40 -47 -3 -13 -11 -22 -17 -20
-11 2 -13 -2 -17 -35 0 -6 -10 -1 -21 12 -11 13 -23 20 -27 16 -4 -3 2 -12 12
-20 18 -13 13 -42 -6 -31 -5 4 -9 1 -9 -5 0 -6 -15 -25 -32 -43 -53 -54 -69
-77 -61 -90 15 -23 9 -63 -9 -63 -13 0 -14 3 -6 13 6 8 7 17 3 21 -4 4 -10 1
-12 -5 -3 -7 -9 -13 -15 -13 -6 0 -5 6 2 15 7 9 19 14 27 11 21 -8 15 7 -14
39 -18 19 -21 27 -10 22 11 -4 24 1 37 15 20 22 26 39 13 37 -28 -5 -36 2 -17
16 17 12 21 12 32 -3 12 -15 13 -11 7 26 -4 26 -3 42 3 42 6 0 12 -6 15 -12 2
-7 8 -10 12 -5 5 4 0 13 -10 21 -22 16 -31 9 -71 -49 -22 -34 -22 -34 -3 -40
20 -7 20 -7 2 -21 -27 -20 -47 -17 -73 11 -13 14 -18 25 -11 25 7 0 9 5 5 12
-5 8 -2 9 10 5 12 -5 19 1 27 21 12 31 38 62 52 62 5 0 4 -7 -3 -15 -9 -10 -9
-15 -1 -15 11 0 15 12 12 43 -2 11 5 17 18 17 12 0 21 5 21 11 0 5 4 8 8 5 5
-3 16 4 25 15 19 22 22 33 6 23 -14 -8 3 22 31 54 18 21 21 22 35 9 8 -9 15
-20 15 -26 0 -6 10 -11 21 -11 16 0 20 -5 16 -20 -7 -26 -1 -26 13 0 8 16 8
24 -4 35 -8 8 -20 15 -27 15 -20 0 -38 32 -25 45 6 7 32 35 59 63 26 29 53 49
60 46 8 -3 19 2 26 10 13 16 64 19 55 4z m140 -3 c3 -8 1 -15 -4 -15 -6 0 -10
7 -10 15 0 8 2 15 4 15 2 0 6 -7 10 -15z m-27 -37 c-3 -8 -6 -5 -6 6 -1 11 2
17 5 13 3 -3 4 -12 1 -19z m-68 -79 c-9 -5 -15 -4 -18 2 -2 6 3 15 10 20 9 5
15 4 18 -2 2 -6 -3 -15 -10 -20z m61 17 c0 -11 -19 -15 -25 -6 -3 5 1 10 9 10
9 0 16 -2 16 -4z m829 -9 c11 -14 5 -27 -12 -27 -6 0 -7 3 -4 7 4 3 2 12 -4
20 -7 8 -8 13 -1 13 5 0 15 -6 21 -13z m149 4 c10 -6 1 -15 -32 -31 -25 -12
-46 -24 -46 -28 0 -3 3 -2 7 1 3 4 13 2 20 -5 8 -6 41 -12 74 -14 33 -1 63 -5
67 -9 4 -5 -1 -5 -10 -2 -19 7 -25 -8 -8 -18 6 -3 10 -11 10 -16 0 -6 -11 3
-25 18 -13 15 -25 22 -25 15 0 -10 -5 -10 -22 -1 -20 9 -20 8 3 -13 64 -56 74
-84 76 -206 1 -62 -2 -110 -6 -107 -5 3 -12 -2 -15 -11 -3 -8 -2 -13 3 -10 5
3 12 -1 15 -10 4 -12 1 -14 -13 -9 -23 7 -38 -12 -22 -28 8 -8 14 -8 23 1 17
17 28 15 28 -5 0 -14 -2 -15 -9 -4 -6 10 -10 10 -16 1 -9 -15 -3 -21 24 -23
26 -2 27 -12 1 -30 -14 -9 -18 -21 -14 -33 5 -16 4 -16 -5 -4 -9 13 -11 13
-11 -2 0 -30 2 -33 14 -30 6 2 7 0 3 -5 -12 -11 -66 -12 -73 -1 -3 5 0 7 8 6
19 -4 10 33 -14 54 -11 10 -25 15 -31 11 -5 -3 -7 -1 -3 5 3 6 2 13 -4 17 -5
3 -10 2 -10 -3 0 -5 -6 -9 -12 -10 -100 -13 -127 -12 -166 1 -35 12 -42 13
-38 2 3 -9 0 -12 -9 -8 -8 3 -12 9 -9 15 8 13 -46 69 -59 61 -6 -3 -7 -1 -4 5
9 13 -2 44 -14 37 -4 -3 -6 -12 -3 -19 6 -17 -8 -28 -22 -18 -6 4 -16 16 -22
27 -6 11 -12 14 -12 7 0 -7 -4 -10 -10 -7 -5 3 -10 0 -10 -7 0 -8 -11 -29 -25
-48 -14 -19 -25 -31 -25 -27 0 4 -11 0 -25 -9 -33 -21 -130 -29 -185 -14 -25
7 -45 11 -46 9 0 -2 -8 4 -18 14 -10 9 -22 14 -28 11 -6 -4 -8 -3 -5 3 3 5 -4
25 -17 44 -16 23 -22 44 -19 61 4 22 10 25 41 24 44 -2 63 -12 56 -30 -3 -7 3
-19 12 -27 12 -9 15 -10 10 -1 -4 7 -2 12 6 13 7 0 4 4 -6 8 -11 4 -15 10 -10
13 5 4 18 0 29 -8 10 -8 14 -14 8 -14 -6 0 -10 -8 -8 -17 2 -10 4 -20 4 -22 1
-3 7 3 14 14 8 10 19 15 25 11 7 -4 12 -2 12 5 0 7 3 10 6 6 3 -3 1 -14 -5
-24 -6 -10 -11 -12 -11 -5 0 17 -20 15 -20 -3 0 -19 64 -21 103 -2 29 13 33
22 15 33 -7 4 -8 3 -4 -4 4 -7 3 -12 -3 -12 -20 0 -21 19 -1 25 16 5 19 10 10
20 -6 8 -21 16 -33 18 l-22 4 22 2 c23 1 56 -25 48 -39 -3 -5 -2 -11 3 -14 4
-2 9 6 10 20 2 25 -23 46 -68 59 -19 5 -21 4 -10 -4 26 -18 -7 -13 -48 8 -102
51 -122 59 -128 50 -3 -6 8 -15 25 -22 17 -6 31 -15 31 -20 0 -4 4 -6 9 -3 5
4 20 2 33 -3 20 -8 19 -9 -12 -8 -19 1 -41 8 -48 14 -15 15 -57 -1 -47 -18 4
-5 -1 -9 -10 -9 -9 0 -13 5 -10 10 3 6 -1 10 -10 10 -9 0 -13 -4 -10 -10 3 -5
2 -10 -3 -10 -5 0 -14 -10 -20 -22 -7 -15 -11 -18 -11 -8 -1 9 6 26 15 38 14
20 14 22 0 22 -9 0 -16 -5 -16 -12 0 -6 -3 -8 -6 -5 -11 11 18 38 30 29 19
-15 46 -22 46 -12 0 6 -7 10 -16 10 -12 0 -11 5 7 19 l24 20 -27 26 c-26 24
-37 42 -20 31 4 -2 8 13 7 34 0 22 -4 36 -10 32 -5 -3 1 7 14 21 14 15 20 27
15 27 -16 0 50 36 91 50 35 12 89 14 136 6 21 -3 61 -26 87 -49 12 -12 22 -15
22 -8 0 6 -7 14 -15 17 -8 4 -12 11 -8 17 4 6 1 7 -7 2 -9 -5 -11 -4 -6 4 6 8
12 9 20 2 7 -6 16 -8 20 -4 4 4 4 -1 0 -11 -5 -14 -4 -17 5 -11 10 6 11 3 2
-13 -13 -25 -14 -32 -2 -32 5 0 13 17 19 38 5 20 10 29 11 20 1 -11 6 -15 16
-12 8 4 15 1 15 -6 0 -6 -4 -8 -10 -5 -5 3 -10 1 -10 -4 0 -6 5 -11 10 -11 6
0 10 -5 10 -12 0 -7 -7 -5 -18 5 -16 14 -18 14 -29 -9 -9 -19 -8 -24 2 -24 7
0 16 6 18 13 3 7 6 5 6 -5 1 -10 -6 -18 -15 -18 -10 0 -14 -6 -10 -15 6 -15 3
-16 -49 -17 -60 -1 -71 1 -55 12 10 6 11 10 3 10 -7 0 -13 7 -13 15 0 15 -30
35 -52 35 -9 0 -9 -3 2 -10 9 -6 10 -10 3 -10 -6 0 -15 5 -18 10 -3 6 -13 10
-21 10 -10 0 -12 -5 -8 -12 6 -10 4 -10 -8 0 -17 13 -52 6 -42 -9 3 -5 -2 -9
-11 -9 -24 0 -30 -28 -10 -50 19 -21 35 -26 35 -12 0 5 -10 14 -22 20 -13 6
-17 11 -10 11 23 1 52 -19 46 -32 -3 -8 18 -18 63 -31 38 -10 75 -20 83 -23
13 -4 13 -3 0 6 -9 6 -10 11 -3 11 6 0 20 3 30 6 15 5 15 4 3 -5 -13 -9 -13
-11 0 -11 13 0 13 -1 0 -10 -13 -8 -13 -10 2 -10 9 0 21 -7 26 -16 12 -22 35
-8 29 17 -3 10 -2 21 3 24 4 2 10 -10 13 -28 3 -17 8 -39 12 -48 3 -10 1 -16
-8 -16 -9 0 -12 8 -9 25 3 16 1 23 -6 18 -15 -9 -9 -62 7 -58 9 2 9 -3 0 -20
-6 -13 -8 -20 -4 -16 5 5 17 -6 27 -23 11 -17 22 -29 25 -25 3 3 1 11 -4 18
-12 15 -13 49 -2 42 5 -2 6 -12 3 -22 -4 -13 -3 -14 4 -4 5 7 7 24 4 38 -4 21
-7 23 -20 12 -14 -11 -15 -10 -7 7 5 11 9 40 10 65 0 25 4 51 8 58 5 7 5 22 2
33 -5 15 -4 19 4 15 6 -4 11 0 11 9 0 25 94 113 131 123 19 5 33 14 32 20 -2
7 8 7 31 0 19 -6 47 -7 62 -4 l29 8 -25 13 c-14 8 -21 14 -17 15 5 0 18 -5 29
-11 25 -13 78 8 56 23 -7 4 -8 8 -3 8 6 0 16 -4 23 -9z m-1948 -5 c0 -2 -8
-10 -17 -17 -16 -13 -17 -12 -4 4 13 16 21 21 21 13z m11 -19 c-10 -9 -11 -8
-5 6 3 10 9 15 12 12 3 -3 0 -11 -7 -18z m-63 -7 c-15 -24 -38 -34 -38 -17 0
17 20 37 37 37 11 0 11 -4 1 -20z m1292 0 c-12 -23 -26 -26 -36 -7 -4 6 -4 9
1 5 4 -4 14 -1 22 7 20 21 26 19 13 -5z m57 14 c-3 -3 -12 -4 -19 -1 -8 3 -5
6 6 6 11 1 17 -2 13 -5z m453 -4 c-8 -5 -19 -10 -25 -10 -5 0 -3 5 5 10 8 5
20 10 25 10 6 0 3 -5 -5 -10z m-320 -11 c0 -4 -8 -9 -18 -11 -10 -3 -19 0 -19
6 0 7 9 12 19 12 10 0 18 -3 18 -7z m-153 -5 c-3 -3 -12 -4 -19 -1 -8 3 -5 6
6 6 11 1 17 -2 13 -5z m76 -1 c-7 -2 -19 -2 -25 0 -7 3 -2 5 12 5 14 0 19 -2
13 -5z m484 1 c-3 -3 -12 -4 -19 -1 -8 3 -5 6 6 6 11 1 17 -2 13 -5z m296 -1
c-27 -10 -11 -23 27 -23 l40 0 0 -201 0 -201 111 4 c107 3 112 2 120 -19 4
-12 5 -32 1 -45 -7 -23 -8 -23 -165 -23 l-157 0 -1 50 c-1 28 -1 134 0 238 1
129 -1 187 -9 187 -8 0 -8 6 0 20 6 11 18 20 28 19 10 0 12 -3 5 -6z m-1273
-7 c0 -3 -4 -8 -10 -11 -5 -3 -10 -1 -10 4 0 6 5 11 10 11 6 0 10 -2 10 -4z
m595 -6 c3 -5 -1 -10 -10 -10 -9 0 -13 5 -10 10 3 6 8 10 10 10 2 0 7 -4 10
-10z m480 0 c3 -5 1 -10 -4 -10 -6 0 -11 5 -11 10 0 6 2 10 4 10 3 0 8 -4 11
-10z m-985 -10 c0 -5 -10 -10 -22 -9 -22 0 -22 1 -3 9 11 5 21 9 23 9 1 1 2
-3 2 -9z m-1055 -32 c-3 -13 -3 -18 2 -13 4 6 15 16 24 22 13 10 16 10 16 -2
0 -8 -4 -12 -9 -9 -13 8 -9 -10 8 -34 8 -12 11 -22 5 -22 -5 0 -13 9 -16 20
-7 23 -27 28 -23 6 2 -8 -1 -15 -6 -15 -6 -1 -11 15 -11 34 -1 19 2 35 7 35 5
0 6 -10 3 -22z m933 2 c-7 -10 -14 -17 -17 -15 -4 4 18 35 25 35 2 0 -1 -9 -8
-20z m362 16 c0 -2 -7 -7 -16 -10 -8 -3 -12 -2 -9 4 6 10 25 14 25 6z m474
-17 c-3 -5 -10 -7 -15 -3 -5 3 -7 10 -3 15 3 5 10 7 15 3 5 -3 7 -10 3 -15z
m-46 4 c-10 -2 -22 -19 -27 -36 -7 -24 -9 -26 -10 -10 -2 35 10 53 33 52 16
-1 17 -2 4 -6z m-801 -75 c2 -24 -13 -48 -29 -48 -20 0 4 60 27 70 1 0 1 -10
2 -22z m1227 6 c5 -14 4 -15 -9 -4 -17 14 -19 20 -6 20 5 0 12 -7 15 -16z
m-2055 -32 c-18 -7 -8 -23 10 -17 10 3 23 0 29 -7 8 -10 3 -13 -22 -13 -18 0
-33 5 -34 10 0 6 -3 23 -5 38 -4 26 -4 27 13 10 9 -10 13 -19 9 -21z m1112 15
c-10 -9 -11 -8 -5 6 3 10 9 15 12 12 3 -3 0 -11 -7 -18z m489 9 c0 -3 -4 -8
-10 -11 -5 -3 -10 -1 -10 4 0 6 5 11 10 11 6 0 10 -2 10 -4z m-842 -20 c-2 -1
-12 -8 -22 -16 -18 -14 -19 -14 -7 8 7 12 17 20 22 16 6 -3 9 -7 7 -8z m547 4
c8 -13 -5 -13 -25 0 -13 8 -13 10 2 10 9 0 20 -4 23 -10z m270 -9 c3 -5 2 -12
-3 -15 -5 -3 -9 1 -9 9 0 17 3 19 12 6z m-458 -33 c-3 -8 -6 -5 -6 6 -1 11 2
17 5 13 3 -3 4 -12 1 -19z m468 -7 c-3 -6 -11 -11 -16 -11 -5 0 -4 6 3 14 14
16 24 13 13 -3z m-81 1 c3 -5 -1 -9 -9 -9 -8 0 -12 4 -9 9 3 4 7 8 9 8 2 0 6
-4 9 -8z m-59 -22 c-3 -5 -14 -10 -23 -10 -15 0 -15 2 -2 10 20 13 33 13 25 0z
m-1353 -39 c-4 -10 -1 -13 12 -8 9 4 15 3 12 -2 -3 -5 -18 -8 -33 -8 -16 0
-22 2 -15 4 9 3 10 9 3 17 -7 8 -5 12 8 12 12 0 17 -5 13 -15z m1058 9 c0 -5
-4 -10 -10 -10 -5 0 -10 5 -10 10 0 6 5 10 10 10 6 0 10 -4 10 -10z m-45 -20
c3 -5 1 -10 -4 -10 -6 0 -11 5 -11 10 0 6 2 10 4 10 3 0 8 -4 11 -10z m-960
-9 c3 -5 2 -12 -3 -15 -5 -3 -9 1 -9 9 0 17 3 19 12 6z m1926 -92 l-11 -34 5
34 c3 18 6 48 7 65 l1 31 4 -31 c2 -18 -1 -47 -6 -65z m-1897 62 c3 -4 -6 -19
-21 -32 -25 -24 -26 -24 -14 -1 6 12 9 22 6 22 -4 0 -3 5 0 10 8 12 22 13 29
1z m1064 -18 c7 -7 8 -13 3 -13 -16 0 -41 12 -41 19 0 13 25 9 38 -6z m95 -13
c-4 -5 -21 -11 -38 -14 -23 -5 -25 -4 -10 3 l20 9 -20 4 c-11 3 -8 4 8 2 15
-2 27 1 27 7 0 6 5 7 11 3 6 -3 7 -10 2 -14z m-1133 -6 c0 6 16 -5 35 -24 32
-31 33 -34 17 -47 -15 -13 -15 -13 8 -8 22 5 23 5 7 -6 -15 -8 -22 -8 -30 1
-9 10 -9 14 1 17 19 7 14 24 -5 21 -12 -2 -18 4 -18 17 0 15 -7 20 -27 19 -22
0 -25 3 -16 13 9 11 13 12 19 1 5 -7 9 -9 9 -4z m462 -46 c-15 -15 -26 -4 -18
18 5 13 9 15 18 6 9 -9 9 -15 0 -24z m473 -27 c20 -23 20 -23 0 -20 -11 2 -26
17 -32 33 -21 46 -18 45 32 -13z m1290 23 c-12 -13 -39 -17 -108 -19 l-92 -2
75 6 c66 6 70 7 35 13 -32 4 -29 5 12 2 29 -1 55 2 58 7 4 5 13 9 21 9 13 0
13 -2 -1 -16z m-334 -57 c-6 -6 -14 -7 -18 -2 -5 4 -2 10 5 12 6 3 13 17 13
31 l2 27 4 -29 c3 -16 0 -33 -6 -39z m-711 38 c0 -8 -4 -15 -10 -15 -5 0 -10
7 -10 15 0 8 5 15 10 15 6 0 10 -7 10 -15z m-1071 -19 c9 -10 8 -15 -2 -19 -8
-3 -13 3 -13 14 0 23 0 23 15 5z m1257 -22 c5 -28 4 -28 -10 -9 -8 11 -18 16
-22 12 -5 -4 -4 -11 1 -15 6 -4 17 -16 25 -27 9 -13 10 -16 1 -8 -13 11 -45 7
-37 -6 2 -3 -13 -6 -34 -6 -21 0 -36 3 -33 8 2 4 14 5 25 1 12 -4 18 -2 14 4
-6 9 53 86 61 78 2 -2 6 -16 9 -32z m-1336 -4 c0 -5 -4 -10 -10 -10 -5 0 -10
5 -10 10 0 6 5 10 10 10 6 0 10 -4 10 -10z m214 -16 c-1 -15 -8 -32 -14 -38
-8 -8 -9 -7 -5 7 9 22 -4 22 -20 0 -9 -13 -14 -13 -20 -3 -5 8 -4 11 3 6 6 -3
13 3 17 14 4 11 10 18 15 15 4 -3 10 2 14 10 8 23 14 18 10 -11z m-122 2 c-22
-12 -22 -13 -6 -27 13 -11 18 -11 21 -1 6 16 19 16 26 -1 3 -9 -7 -12 -32 -12
-30 0 -37 3 -36 18 1 19 21 37 40 36 6 0 0 -5 -13 -13z m1341 -6 c3 -11 1 -18
-4 -14 -5 3 -9 12 -9 20 0 20 7 17 13 -6z m-468 -19 c3 -5 1 -12 -5 -16 -5 -3
-10 1 -10 9 0 18 6 21 15 7z m-665 -46 c0 -8 -4 -15 -10 -15 -5 0 -10 7 -10
15 0 8 5 15 10 15 6 0 10 -7 10 -15z m1825 -25 c4 -6 -5 -10 -20 -10 -15 0
-24 4 -20 10 3 6 12 10 20 10 8 0 17 -4 20 -10z"/>
<path d="M1350 3300 c0 -5 5 -10 11 -10 5 0 7 5 4 10 -3 6 -8 10 -11 10 -2 0
-4 -4 -4 -10z"/>
<path d="M1210 3214 c0 -3 6 -12 14 -19 17 -17 30 -7 15 12 -12 13 -29 18 -29
7z"/>
<path d="M2579 3192 c9 -7 10 -11 2 -15 -7 -4 -8 -5 -1 -3 16 2 14 20 -2 24
-10 3 -10 2 1 -6z"/>
<path d="M1390 3111 c0 -10 19 -25 25 -20 1 2 -3 10 -11 17 -8 7 -14 8 -14 3z"/>
<path d="M2370 1690 c8 -5 20 -10 25 -10 6 0 3 5 -5 10 -8 5 -19 10 -25 10 -5
0 -3 -5 5 -10z"/>
<path d="M2920 1505 c-14 -16 -10 -18 14 -9 9 3 16 10 16 15 0 14 -16 11 -30
-6z"/>
<path d="M798 1364 c-12 -11 -9 -21 7 -27 8 -4 17 -1 21 5 4 6 3 8 -4 4 -6 -3
-12 1 -14 10 -2 9 -6 12 -10 8z"/>
<path d="M693 1263 c-24 -9 -14 -33 13 -33 24 0 25 2 13 18 -7 9 -13 18 -14
18 0 1 -6 -1 -12 -3z"/>
<path d="M620 1185 c-11 -13 -10 -14 4 -9 9 3 16 10 16 15 0 13 -6 11 -20 -6z"/>
<path d="M570 1135 c0 -15 38 -40 47 -31 7 7 -26 46 -39 46 -4 0 -8 -7 -8 -15z"/>
<path d="M537 1103 c-12 -11 -8 -33 6 -33 7 0 13 9 14 20 2 20 -8 26 -20 13z"/>
<path d="M403 973 c-3 -10 -8 -22 -11 -28 -3 -5 4 -1 16 9 24 20 28 36 12 36
-6 0 -13 -8 -17 -17z"/>
<path d="M460 964 c0 -8 5 -12 10 -9 6 3 10 10 10 16 0 5 -4 9 -10 9 -5 0 -10
-7 -10 -16z"/>
<path d="M430 950 c0 -5 5 -10 11 -10 5 0 7 5 4 10 -3 6 -8 10 -11 10 -2 0 -4
-4 -4 -10z"/>
<path d="M430 915 c-15 -18 -13 -20 18 -29 27 -9 28 -3 5 20 -17 17 -17 17 5
12 12 -3 20 -2 16 3 -8 14 -30 11 -44 -6z"/>
<path d="M1008 938 c-32 -33 -34 -43 -13 -64 20 -20 33 -10 28 20 -3 13 0 34
7 46 17 32 9 31 -22 -2z"/>
<path d="M945 759 c-4 -6 -5 -13 -2 -16 7 -7 27 6 27 18 0 12 -17 12 -25 -2z"/>
<path d="M860 735 c0 -8 4 -15 9 -15 5 0 11 7 15 15 3 9 0 15 -9 15 -8 0 -15
-7 -15 -15z"/>
<path d="M700 601 c0 -5 8 -15 17 -22 14 -12 15 -12 9 0 -7 10 -3 12 13 6 33
-10 25 2 -9 14 -16 5 -30 6 -30 2z"/>
<path d="M2032 773 c-6 -2 -10 -8 -7 -13 3 -5 -4 -11 -15 -15 -31 -10 -44 -39
-56 -123 -14 -95 53 -181 140 -180 l40 0 -25 19 c-22 18 -23 20 -6 30 9 6 15
14 12 20 -4 5 -1 9 5 9 6 0 10 10 8 22 -2 12 3 23 11 26 9 3 12 0 9 -9 -3 -8
7 -27 23 -43 l27 -29 16 38 c20 46 21 130 3 147 -8 7 -12 20 -10 29 3 10 -10
28 -33 48 -39 31 -71 42 -58 19 6 -10 4 -10 -7 0 -7 6 -20 12 -28 12 -14 0
-14 -1 -1 -10 9 -6 10 -10 3 -10 -6 0 -15 5 -18 10 -7 11 -13 11 -33 3z m164
-92 c-4 -39 -16 -53 -16 -20 0 18 -3 20 -9 10 -7 -10 -9 -7 -8 12 2 19 5 23
15 15 9 -8 12 -6 12 5 0 8 -7 17 -15 21 -8 3 -15 10 -15 16 0 6 9 2 20 -8 14
-13 19 -28 16 -51z m-197 28 c-10 -7 -11 -11 -3 -16 9 -6 7 -12 -4 -23 -14
-13 -15 -12 -9 3 3 9 2 17 -3 17 -6 0 -5 8 2 19 7 11 16 17 21 14 5 -3 3 -9
-4 -14z m218 -81 c-3 -7 -5 -2 -5 12 0 14 2 19 5 13 2 -7 2 -19 0 -25z m-242
13 c3 -5 1 -12 -5 -16 -5 -3 -10 1 -10 9 0 18 6 21 15 7z m197 -43 c-6 -22 -9
-24 -20 -12 -7 8 -8 14 -2 14 5 0 10 10 10 22 0 14 3 19 10 12 5 -5 6 -21 2
-36z m25 -15 c1 -24 0 -25 -6 -8 -7 17 -6 35 2 35 2 0 3 -12 4 -27z m-224 -13
c3 -11 1 -18 -4 -14 -5 3 -9 12 -9 20 0 20 7 17 13 -6z m137 -31 c0 -11 -4
-18 -10 -14 -5 3 -7 12 -3 20 7 21 13 19 13 -6z m90 -19 c0 -5 -5 -10 -11 -10
-5 0 -7 5 -4 10 3 6 8 10 11 10 2 0 4 -4 4 -10z m-93 -14 c3 -3 -3 -5 -13 -4
-11 0 -32 -2 -49 -6 -16 -3 -24 -3 -16 0 10 5 10 8 1 14 -6 4 7 6 30 4 23 -1
44 -5 47 -8z m-53 -38 c5 -10 7 -10 12 0 6 12 24 7 24 -6 0 -14 -39 -11 -51 4
-7 9 -8 14 -1 14 6 0 13 -6 16 -12z"/>
<path d="M1450 600 c0 -5 5 -10 11 -10 5 0 7 5 4 10 -3 6 -8 10 -11 10 -2 0
-4 -4 -4 -10z"/>
<path d="M1787 403 c-4 -3 -7 -11 -7 -17 0 -6 5 -5 12 2 6 6 9 14 7 17 -3 3
-9 2 -12 -2z"/>
</g>
</svg>
